<svg version="1.1" viewBox="0.0 0.0 1350.3805774278214 648.7690288713911" fill="none" stroke="none" stroke-linecap="square" stroke-miterlimit="10" xmlns:xlink="http://www.w3.org/1999/xlink" xmlns="http://www.w3.org/2000/svg"><clipPath id="p.0"><path d="m0 0l1350.3806 0l0 648.76904l-1350.3806 0l0 -648.76904z" clip-rule="nonzero"/></clipPath><g clip-path="url(#p.0)"><path fill="#000000" fill-opacity="0.0" d="m0 0l1350.3806 0l0 648.76904l-1350.3806 0z" fill-rule="evenodd"/><path fill="#00c4cc" d="m1332.932 64.23318l-1333.2654 0l0 582.82666l1348.2174 0l0 -582.82666l-14.952026 0zm0 566.9626l-1318.1454 0l0 -550.9202l1318.1454 0l0 550.9202z" fill-rule="evenodd"/><path fill="#0001a9" d="m70.76378 64.23328l59.125504 0l0 16.400467l-59.125504 0z" fill-rule="evenodd"/><path fill="#7ed957" d="m86.53239 59.43434l25.619003 0l0 27.181755l-25.619003 0z" fill-rule="evenodd"/><path fill="#0001a9" d="m586.46643 58.86769l201.42975 0l0 24.45427l-201.42975 0z" fill-rule="evenodd"/><path fill="#aeadb0" d="m-0.63779527 0.020997375l1350.6093 0l0 53.543148l-1350.6093 0z" fill-rule="evenodd"/><path fill="#000000" fill-opacity="0.0" d="m586.7705 41.199055l201.4173 0l0 58.204723l-201.4173 0z" fill-rule="evenodd"/><path fill="#ffffff" d="m608.99493 75.330925q0.171875 0.6875 0.171875 1.703125q0 0.984375 -0.171875 1.71875l-1.703125 0q0.171875 0.671875 0.171875 1.703125q0 0.984375 -0.171875 1.703125l-8.53125 0q-0.171875 -0.71875 -0.171875 -1.703125q0 -1.03125 0.171875 -1.703125l-1.71875 0q-0.171875 -0.734375 -0.171875 -1.71875q0 -1.015625 0.171875 -1.703125l-1.703125 0q-0.171875 -0.71875 -0.171875 -1.703125q0 -1.03125 0.171875 -1.703125q-0.171875 -0.734375 -0.171875 -1.703125q0 -1.03125 0.171875 -1.71875q-0.171875 -0.71875 -0.171875 -1.703125q0 -1.015625 0.171875 -1.703125l1.703125 0q-0.171875 -0.71875 -0.171875 -1.7031212q0 -1.03125 0.171875 -1.703125l1.71875 0q-0.171875 -0.734375 -0.171875 -1.71875q0 -1.015625 0.171875 -1.703125l8.53125 0q0.171875 0.6875 0.171875 1.703125q0 0.984375 -0.171875 1.71875l1.703125 0q0.171875 0.671875 0.171875 1.703125q0 0.9843712 -0.171875 1.7031212l-3.421875 0q-0.171875 -0.71875 -0.171875 -1.7031212q0 -1.03125 0.171875 -1.703125l-5.109375 0q0.171875 0.671875 0.171875 1.703125q0 0.9843712 -0.171875 1.7031212l-1.703125 0q0.171875 0.6875 0.171875 1.703125q0 0.984375 -0.171875 1.703125q0.171875 0.6875 0.171875 1.71875q0 0.96875 -0.171875 1.703125q0.171875 0.671875 0.171875 1.703125q0 0.984375 -0.171875 1.703125l1.703125 0q0.171875 0.6875 0.171875 1.703125q0 0.984375 -0.171875 1.71875l5.109375 0q-0.171875 -0.734375 -0.171875 -1.71875q0 -1.015625 0.171875 -1.703125l3.421875 0zm17.234375 -1.703125q0 0.984375 -0.171875 1.703125l-1.28125 0q0.171875 0.6875 0.171875 1.703125q0 0.984375 -0.171875 1.71875l-2.140625 0q0.171875 0.671875 0.171875 1.703125q0 0.984375 -0.171875 1.703125l-6.8125 0q-0.171875 -0.71875 -0.171875 -1.703125q0 -1.03125 0.171875 -1.703125l-2.140625 0q-0.171875 -0.734375 -0.171875 -1.71875q0 -1.015625 0.171875 -1.703125l-1.28125 0q-0.171875 -0.71875 -0.171875 -1.703125q0 -1.03125 0.171875 -1.703125l1.28125 0q-0.171875 -0.734375 -0.171875 -1.703125q0 -1.03125 0.171875 -1.71875l2.140625 0q-0.171875 -0.71875 -0.171875 -1.703125q0 -1.015625 0.171875 -1.703125l6.8125 0q0.171875 0.6875 0.171875 1.703125q0 0.984375 -0.171875 1.703125l2.140625 0q0.171875 0.6875 0.171875 1.71875q0 0.96875 -0.171875 1.703125l1.28125 0q0.171875 0.671875 0.171875 1.703125zm-3.59375 1.703125q-0.171875 -0.71875 -0.171875 -1.703125q0 -1.03125 0.171875 -1.703125l-1.28125 0q-0.15625 -0.734375 -0.15625 -1.703125q0 -1.03125 0.15625 -1.71875l-4.265625 0q0.171875 0.6875 0.171875 1.71875q0 0.96875 -0.171875 1.703125l-1.265625 0q0.171875 0.671875 0.171875 1.703125q0 0.984375 -0.171875 1.703125l1.265625 0q0.171875 0.6875 0.171875 1.703125q0 0.984375 -0.171875 1.71875l4.265625 0q-0.15625 -0.734375 -0.15625 -1.71875q0 -1.015625 0.15625 -1.703125l1.28125 0zm9.984314 -8.53125q0 0.984375 -0.171875 1.703125l1.703125 0q0.171875 0.6875 0.171875 1.71875q0 0.96875 -0.171875 1.703125l-1.265625 0q0.171875 0.671875 0.171875 1.703125q0 0.984375 -0.171875 1.703125q0.171875 0.6875 0.171875 1.703125q0 0.984375 -0.171875 1.71875q0.171875 0.671875 0.171875 1.703125q0 0.984375 -0.171875 1.703125l-3.421875 0q-0.171875 -0.71875 -0.171875 -1.703125q0 -1.03125 0.171875 -1.703125q-0.171875 -0.734375 -0.171875 -1.71875q0 -1.015625 0.171875 -1.703125q-0.171875 -0.71875 -0.171875 -1.703125q0 -1.03125 0.171875 -1.703125q-0.171875 -0.734375 -0.171875 -1.703125q0 -1.03125 0.171875 -1.71875q-0.171875 -0.71875 -0.171875 -1.703125q0 -1.015625 0.171875 -1.703125l2.984375 0q0.171875 0.6875 0.171875 1.703125zm10.5 5.125q0.171875 0.671875 0.171875 1.703125q0 0.984375 -0.171875 1.703125q0.171875 0.6875 0.171875 1.703125q0 0.984375 -0.171875 1.71875q0.171875 0.671875 0.171875 1.703125q0 0.984375 -0.171875 1.703125l-3.421875 0q-0.171875 -0.71875 -0.171875 -1.703125q0 -1.03125 0.171875 -1.703125q-0.171875 -0.734375 -0.171875 -1.71875q0 -1.015625 0.171875 -1.703125q-0.171875 -0.71875 -0.171875 -1.703125q0 -1.03125 0.171875 -1.703125q-0.171875 -0.734375 -0.171875 -1.703125q0 -1.03125 0.171875 -1.71875l-5.546875 0q-0.15625 -0.71875 -0.15625 -1.703125q0 -1.015625 0.15625 -1.703125l6.828125 0q0.171875 0.6875 0.171875 1.703125q0 0.984375 -0.171875 1.703125l2.140625 0q0.171875 0.6875 0.171875 1.71875q0 0.96875 -0.171875 1.703125zm15.359375 6.828125q0.171875 0.671875 0.171875 1.703125q0 0.984375 -0.171875 1.703125l-6.828125 0q-0.171875 -0.71875 -0.171875 -1.703125q0 -1.03125 0.171875 -1.703125l-1.703125 0q-0.171875 -0.734375 -0.171875 -1.71875q0 -1.015625 0.171875 -1.703125q-0.171875 -0.71875 -0.171875 -1.703125q0 -1.03125 0.171875 -1.703125q-0.171875 -0.734375 -0.171875 -1.703125q0 -1.03125 0.171875 -1.71875l-3.421875 0q-0.171875 -0.71875 -0.171875 -1.703125q0 -1.015625 0.171875 -1.703125l3.421875 0q-0.171875 -0.71875 -0.171875 -1.7031212q0 -1.03125 0.171875 -1.703125q-0.171875 -0.734375 -0.171875 -1.71875q0 -1.015625 0.171875 -1.703125l3.40625 0q0.171875 0.6875 0.171875 1.703125q0 0.984375 -0.171875 1.71875q0.171875 0.671875 0.171875 1.703125q0 0.9843712 -0.171875 1.7031212l5.125 0q0.171875 0.6875 0.171875 1.703125q0 0.984375 -0.171875 1.703125l-5.125 0q0.171875 0.6875 0.171875 1.71875q0 0.96875 -0.171875 1.703125q0.171875 0.671875 0.171875 1.703125q0 0.984375 -0.171875 1.703125q0.171875 0.6875 0.171875 1.703125q0 0.984375 -0.171875 1.71875l5.125 0zm18.765564 0q0.171875 0.671875 0.171875 1.703125q0 0.984375 -0.171875 1.703125l-3.421875 0q-0.171875 -0.71875 -0.171875 -1.703125q0 -1.03125 0.171875 -1.703125l-1.703125 0q-0.171875 -0.734375 -0.171875 -1.71875q0 -1.015625 0.171875 -1.703125l-5.109375 0q0.171875 0.6875 0.171875 1.703125q0 0.984375 -0.171875 1.71875l5.109375 0q0.171875 0.671875 0.171875 1.703125q0 0.984375 -0.171875 1.703125l-6.828125 0q-0.171875 -0.71875 -0.171875 -1.703125q0 -1.03125 0.171875 -1.703125l-1.703125 0q-0.171875 -0.734375 -0.171875 -1.71875q0 -1.015625 0.171875 -1.703125l1.703125 0q-0.171875 -0.71875 -0.171875 -1.703125q0 -1.03125 0.171875 -1.703125l6.828125 0q-0.171875 -0.734375 -0.171875 -1.703125q0 -1.03125 0.171875 -1.71875l-5.96875 0q-0.171875 -0.71875 -0.171875 -1.703125q0 -1.015625 0.171875 -1.703125l7.671875 0q0.171875 0.6875 0.171875 1.703125q0 0.984375 -0.171875 1.703125l1.71875 0q0.171875 0.6875 0.171875 1.71875q0 0.96875 -0.171875 1.703125q0.171875 0.671875 0.171875 1.703125q0 0.984375 -0.171875 1.703125q0.171875 0.6875 0.171875 1.703125q0 0.984375 -0.171875 1.71875l1.703125 0zm17.0625 -3.421875q0.171875 0.6875 0.171875 1.703125q0 0.984375 -0.171875 1.71875l-1.703125 0q0.171875 0.671875 0.171875 1.703125q0 0.984375 -0.171875 1.703125l-8.53125 0q-0.171875 -0.71875 -0.171875 -1.703125q0 -1.03125 0.171875 -1.703125l-1.71875 0q-0.171875 -0.734375 -0.171875 -1.71875q0 -1.015625 0.171875 -1.703125l-1.703125 0q-0.171875 -0.71875 -0.171875 -1.703125q0 -1.03125 0.171875 -1.703125l1.703125 0q-0.171875 -0.734375 -0.171875 -1.703125q0 -1.03125 0.171875 -1.71875l1.71875 0q-0.171875 -0.71875 -0.171875 -1.703125q0 -1.015625 0.171875 -1.703125l8.53125 0q0.171875 0.6875 0.171875 1.703125q0 0.984375 -0.171875 1.703125l1.703125 0q0.171875 0.6875 0.171875 1.71875q0 0.96875 -0.171875 1.703125l-3.421875 0q-0.171875 -0.734375 -0.171875 -1.703125q0 -1.03125 0.171875 -1.71875l-5.109375 0q0.171875 0.6875 0.171875 1.71875q0 0.96875 -0.171875 1.703125l-1.703125 0q0.171875 0.671875 0.171875 1.703125q0 0.984375 -0.171875 1.703125l1.703125 0q0.171875 0.6875 0.171875 1.703125q0 0.984375 -0.171875 1.71875l5.109375 0q-0.171875 -0.734375 -0.171875 -1.71875q0 -1.015625 0.171875 -1.703125l3.421875 0zm15.359314 3.421875q0.171875 0.671875 0.171875 1.703125q0 0.984375 -0.171875 1.703125l-6.828125 0q-0.171875 -0.71875 -0.171875 -1.703125q0 -1.03125 0.171875 -1.703125l-1.703125 0q-0.171875 -0.734375 -0.171875 -1.71875q0 -1.015625 0.171875 -1.703125q-0.171875 -0.71875 -0.171875 -1.703125q0 -1.03125 0.171875 -1.703125q-0.171875 -0.734375 -0.171875 -1.703125q0 -1.03125 0.171875 -1.71875l-3.421875 0q-0.171875 -0.71875 -0.171875 -1.703125q0 -1.015625 0.171875 -1.703125l3.421875 0q-0.171875 -0.71875 -0.171875 -1.7031212q0 -1.03125 0.171875 -1.703125q-0.171875 -0.734375 -0.171875 -1.71875q0 -1.015625 0.171875 -1.703125l3.40625 0q0.171875 0.6875 0.171875 1.703125q0 0.984375 -0.171875 1.71875q0.171875 0.671875 0.171875 1.703125q0 0.9843712 -0.171875 1.7031212l5.125 0q0.171875 0.6875 0.171875 1.703125q0 0.984375 -0.171875 1.703125l-5.125 0q0.171875 0.6875 0.171875 1.71875q0 0.96875 -0.171875 1.703125q0.171875 0.671875 0.171875 1.703125q0 0.984375 -0.171875 1.703125q0.171875 0.6875 0.171875 1.703125q0 0.984375 -0.171875 1.71875l5.125 0zm14.234375 -1.71875q0 0.984375 -0.171875 1.71875q0.171875 0.671875 0.171875 1.703125q0 0.984375 -0.171875 1.703125l-4.265625 0q-0.15625 -0.71875 -0.15625 -1.703125q0 -1.03125 0.15625 -1.703125q-0.15625 -0.734375 -0.15625 -1.71875q0 -1.015625 0.15625 -1.703125l4.265625 0q0.171875 0.6875 0.171875 1.703125zm21.593689 -1.703125q0.171875 0.6875 0.171875 1.703125q0 0.984375 -0.171875 1.71875l-1.703125 0q0.171875 0.671875 0.171875 1.703125q0 0.984375 -0.171875 1.703125l-8.53125 0q-0.171875 -0.71875 -0.171875 -1.703125q0 -1.03125 0.171875 -1.703125l-1.71875 0q-0.171875 -0.734375 -0.171875 -1.71875q0 -1.015625 0.171875 -1.703125l-1.703125 0q-0.171875 -0.71875 -0.171875 -1.703125q0 -1.03125 0.171875 -1.703125q-0.171875 -0.734375 -0.171875 -1.703125q0 -1.03125 0.171875 -1.71875q-0.171875 -0.71875 -0.171875 -1.703125q0 -1.015625 0.171875 -1.703125l1.703125 0q-0.171875 -0.71875 -0.171875 -1.7031212q0 -1.03125 0.171875 -1.703125l1.71875 0q-0.171875 -0.734375 -0.171875 -1.71875q0 -1.015625 0.171875 -1.703125l8.53125 0q0.171875 0.6875 0.171875 1.703125q0 0.984375 -0.171875 1.71875l1.703125 0q0.171875 0.671875 0.171875 1.703125q0 0.9843712 -0.171875 1.7031212l-3.421875 0q-0.171875 -0.71875 -0.171875 -1.7031212q0 -1.03125 0.171875 -1.703125l-5.109375 0q0.171875 0.671875 0.171875 1.703125q0 0.9843712 -0.171875 1.7031212l-1.703125 0q0.171875 0.6875 0.171875 1.703125q0 0.984375 -0.171875 1.703125q0.171875 0.6875 0.171875 1.71875q0 0.96875 -0.171875 1.703125q0.171875 0.671875 0.171875 1.703125q0 0.984375 -0.171875 1.703125l1.703125 0q0.171875 0.6875 0.171875 1.703125q0 0.984375 -0.171875 1.71875l5.109375 0q-0.171875 -0.734375 -0.171875 -1.71875q0 -1.015625 0.171875 -1.703125l3.421875 0zm17.234375 -11.937496q0 0.9843712 -0.171875 1.7031212q0.171875 0.6875 0.171875 1.703125q0 0.984375 -0.171875 1.703125l-1.703125 0q0.171875 0.6875 0.171875 1.71875q0 0.96875 -0.171875 1.703125l-8.53125 0q0.171875 0.671875 0.171875 1.703125q0 0.984375 -0.171875 1.703125q0.171875 0.6875 0.171875 1.703125q0 0.984375 -0.171875 1.71875q0.171875 0.671875 0.171875 1.703125q0 0.984375 -0.171875 1.703125l-3.421875 0q-0.171875 -0.71875 -0.171875 -1.703125q0 -1.03125 0.171875 -1.703125q-0.171875 -0.734375 -0.171875 -1.71875q0 -1.015625 0.171875 -1.703125q-0.171875 -0.71875 -0.171875 -1.703125q0 -1.03125 0.171875 -1.703125q-0.171875 -0.734375 -0.171875 -1.703125q0 -1.03125 0.171875 -1.71875q-0.171875 -0.71875 -0.171875 -1.703125q0 -1.015625 0.171875 -1.703125q-0.171875 -0.71875 -0.171875 -1.7031212q0 -1.03125 0.171875 -1.703125q-0.171875 -0.734375 -0.171875 -1.71875q0 -1.015625 0.171875 -1.703125l11.953125 0q0.171875 0.6875 0.171875 1.703125q0 0.984375 -0.171875 1.71875l1.703125 0q0.171875 0.671875 0.171875 1.703125zm-3.59375 5.109371q-0.171875 -0.71875 -0.171875 -1.703125q0 -1.015625 0.171875 -1.703125q-0.171875 -0.71875 -0.171875 -1.7031212q0 -1.03125 0.171875 -1.703125l-6.8125 0q0.171875 0.671875 0.171875 1.703125q0 0.9843712 -0.171875 1.7031212q0.171875 0.6875 0.171875 1.703125q0 0.984375 -0.171875 1.703125l6.8125 0zm20.656189 -5.109371q0 0.9843712 -0.171875 1.7031212q0.171875 0.6875 0.171875 1.703125q0 0.984375 -0.171875 1.703125l-1.703125 0q0.171875 0.6875 0.171875 1.71875q0 0.96875 -0.171875 1.703125l-8.53125 0q0.171875 0.671875 0.171875 1.703125q0 0.984375 -0.171875 1.703125q0.171875 0.6875 0.171875 1.703125q0 0.984375 -0.171875 1.71875q0.171875 0.671875 0.171875 1.703125q0 0.984375 -0.171875 1.703125l-3.421875 0q-0.171875 -0.71875 -0.171875 -1.703125q0 -1.03125 0.171875 -1.703125q-0.171875 -0.734375 -0.171875 -1.71875q0 -1.015625 0.171875 -1.703125q-0.171875 -0.71875 -0.171875 -1.703125q0 -1.03125 0.171875 -1.703125q-0.171875 -0.734375 -0.171875 -1.703125q0 -1.03125 0.171875 -1.71875q-0.171875 -0.71875 -0.171875 -1.703125q0 -1.015625 0.171875 -1.703125q-0.171875 -0.71875 -0.171875 -1.7031212q0 -1.03125 0.171875 -1.703125q-0.171875 -0.734375 -0.171875 -1.71875q0 -1.015625 0.171875 -1.703125l11.953125 0q0.171875 0.6875 0.171875 1.703125q0 0.984375 -0.171875 1.71875l1.703125 0q0.171875 0.671875 0.171875 1.703125zm-3.59375 5.109371q-0.171875 -0.71875 -0.171875 -1.703125q0 -1.015625 0.171875 -1.703125q-0.171875 -0.71875 -0.171875 -1.7031212q0 -1.03125 0.171875 -1.703125l-6.8125 0q0.171875 0.671875 0.171875 1.703125q0 0.9843712 -0.171875 1.7031212q0.171875 0.6875 0.171875 1.703125q0 0.984375 -0.171875 1.703125l6.8125 0z" fill-rule="nonzero"/><path fill="#0001a9" d="m69.69029 630.5934l59.12549 0l0 18.493896l-59.12549 0z" fill-rule="evenodd"/><path fill="#000000" fill-opacity="0.0" d="m72.37632 615.3008l56.44094 0l0 42.078735l-56.44094 0z" fill-rule="evenodd"/><path fill="#ffffff" d="m86.00612 634.5051q0 0.734375 -0.125 1.28125l0.953125 0q0.125 0.5 0.125 1.28125q0 0.734375 -0.125 1.265625l-3.515625 0q-0.125 -0.53125 -0.125 -1.265625q0 -0.78125 0.125 -1.28125q-0.125 -0.546875 -0.125 -1.28125q0 -0.765625 0.125 -1.28125q-0.125 -0.546875 -0.125 -1.28125q0 -0.765625 0.125 -1.28125q-0.125 -0.546875 -0.125 -1.28125q0 -0.765625 0.125 -1.28125l8.640625 0q0.125 0.515625 0.125 1.28125q0 0.734375 -0.125 1.28125l-6.078125 0q0.125 0.515625 0.125 1.28125q0 0.734375 -0.125 1.28125q0.125 0.515625 0.125 1.28125zm7.03125 5.109375q0 0.75 -0.125 1.28125l-0.953125 0q0.125 0.515625 0.125 1.28125q0 0.734375 -0.125 1.28125l-1.609375 0q0.140625 0.515625 0.140625 1.28125q0 0.734375 -0.140625 1.28125l-5.75 0q-0.125 -0.546875 -0.125 -1.28125q0 -0.765625 0.125 -1.28125l-1.28125 0q-0.125 -0.546875 -0.125 -1.28125q0 -0.765625 0.125 -1.28125l1.921875 0q0.125 0.515625 0.125 1.28125q0 0.734375 -0.125 1.28125l4.15625 0q-0.125 -0.546875 -0.125 -1.28125q0 -0.765625 0.125 -1.28125l0.953125 0q-0.125 -0.53125 -0.125 -1.28125q0 -0.765625 0.125 -1.28125l-0.953125 0q-0.125 -0.53125 -0.125 -1.265625q0 -0.78125 0.125 -1.28125l-2.5625 0q-0.125 -0.546875 -0.125 -1.28125q0 -0.765625 0.125 -1.28125l3.515625 0q0.140625 0.515625 0.140625 1.28125q0 0.734375 -0.140625 1.28125l1.609375 0q0.125 0.5 0.125 1.28125q0 0.734375 -0.125 1.265625l0.953125 0q0.125 0.515625 0.125 1.28125zm9.284409 -7.671875q0 0.734375 -0.125 1.28125q0.125 0.515625 0.125 1.28125q0 0.734375 -0.125 1.28125l-3.203125 0q-0.125 -0.546875 -0.125 -1.28125q0 -0.765625 0.125 -1.28125q-0.125 -0.546875 -0.125 -1.28125q0 -0.765625 0.125 -1.28125l3.203125 0q0.125 0.515625 0.125 1.28125zm-0.125 8.953125q0.125 0.515625 0.125 1.28125q0 0.734375 -0.125 1.28125q0.125 0.515625 0.125 1.28125q0 0.734375 -0.125 1.28125l-3.203125 0q-0.125 -0.546875 -0.125 -1.28125q0 -0.765625 0.125 -1.28125q-0.125 -0.546875 -0.125 -1.28125q0 -0.765625 0.125 -1.28125l3.203125 0zm15.034409 2.5625q0.140625 0.515625 0.140625 1.28125q0 0.734375 -0.140625 1.28125l-7.671875 0q-0.125 -0.546875 -0.125 -1.28125q0 -0.765625 0.125 -1.28125l2.5625 0q-0.140625 -0.546875 -0.140625 -1.28125q0 -0.765625 0.140625 -1.28125q-0.140625 -0.53125 -0.140625 -1.28125q0 -0.765625 0.140625 -1.28125q-0.140625 -0.53125 -0.140625 -1.265625q0 -0.78125 0.140625 -1.28125q-0.140625 -0.546875 -0.140625 -1.28125q0 -0.765625 0.140625 -1.28125l-1.921875 0q-0.125 -0.546875 -0.125 -1.28125q0 -0.765625 0.125 -1.28125l1.921875 0q-0.140625 -0.546875 -0.140625 -1.28125q0 -0.765625 0.140625 -1.28125l2.5625 0q0.125 0.515625 0.125 1.28125q0 0.734375 -0.125 1.28125q0.125 0.515625 0.125 1.28125q0 0.734375 -0.125 1.28125q0.125 0.515625 0.125 1.28125q0 0.734375 -0.125 1.28125q0.125 0.5 0.125 1.28125q0 0.734375 -0.125 1.265625q0.125 0.515625 0.125 1.28125q0 0.75 -0.125 1.28125q0.125 0.515625 0.125 1.28125q0 0.734375 -0.125 1.28125l2.546875 0z" fill-rule="nonzero"/></g></svg>