<?xml version="1.0" encoding="UTF-8"?><!-- Generator: Adobe Illustrator 23.0.1, SVG Export Plug-In . SVG Version: 6.00 Build 0)  --><svg xmlns="http://www.w3.org/2000/svg" xmlns:xlink="http://www.w3.org/1999/xlink" contentScriptType="text/ecmascript" zoomAndPan="magnify" contentStyleType="text/css" id="Layer_1" enable-background="new 0 0 284.3 284.3" version="1.1" xml:space="preserve" preserveAspectRatio="xMidYMid meet" viewBox="0 0 284.3 284.3" x="0px" y="0px">
<g id="change1_1"><path fill="#5271ff" d="m0 0v284.3h284.3v-284.3h-284.3zm283.3 56.7h-55.7v-55.7h55.7v55.7zm-169 113.3v-55.7h55.7v55.7h-55.7zm55.7 1v55.7h-55.7v-55.7h55.7zm-56.7-1h-55.6v-55.7h55.7v55.7zm1-56.7v-55.6h55.7v55.7h-55.7zm56.7 1h55.7v55.7h-55.7v-55.7zm0-1v-55.6h55.7v55.7h-55.7zm0-56.6v-55.7h55.7v55.7h-55.7zm-1 0h-55.7v-55.7h55.7v55.7zm-56.7 0h-55.6v-55.7h55.7v55.7zm0 1v55.7h-55.6v-55.7h55.6zm-56.6 55.6h-55.7v-55.6h55.7v55.6zm0 1v55.7h-55.7v-55.7h55.7zm0 56.7v55.7h-55.7v-55.7h55.7zm1 0h55.7v55.7h-55.7v-55.7zm55.6 56.6v55.7h-55.6v-55.7h55.6zm1 0h55.7v55.7h-55.7v-55.7zm56.7 0h55.7v55.7h-55.7v-55.7zm0-1v-55.6h55.7v55.7h-55.7zm56.6-55.6h55.7v55.7h-55.7v-55.7zm0-1v-55.7h55.7v55.7h-55.7zm0-56.7v-55.6h55.7v55.7h-55.7zm-170.9-112.3v55.7h-55.7v-55.7h55.7zm-55.7 226.6h55.7v55.7h-55.7v-55.7zm226.6 55.7v-55.7h55.7v55.7h-55.7z"/></g>
</svg>