<?xml version="1.0" encoding="UTF-8"?><svg xmlns="http://www.w3.org/2000/svg" xmlns:xlink="http://www.w3.org/1999/xlink" contentScriptType="text/ecmascript" width="357.43pt" zoomAndPan="magnify" contentStyleType="text/css" viewBox="0 0 357.43 499.93" height="499.93pt" preserveAspectRatio="xMidYMid meet" version="1.1">
 <defs>
  <clipPath id="clip1">
   <path d="m0 0h357.43v499.93h-357.43z"/>
  </clipPath>
 </defs>
 <g id="surface1">
  <g id="change1_1"><path fill="#d17165" d="m306.32 121.8l-13.2 6s-22.1 24.7-33.9 26.5c0 0-62.8 21.5-54.5 58.9l6.6-3.9 10-0.1s17.4 2.71 24.3-4c6.9-6.79 26.5-19.79 26.5-19.79zm-148 46.11s-1.5-20.11-12.8-26.21c-11.3-6.09-13.7-14.2-13.7-14.2s-7.9-17.39-27.1-9.59c-19.197 7.79-26.396 8.59-26.396 8.59s-14.601-2.3-26.801 3.41c-12.199 5.7-23.8 23.29-27.199 25-3.402 1.7 7.199 4.09 7.199 4.09l17.5 1.3s22-5.19 28.102-4.19c6.098 1 12.898 3.39 12.898 3.39s17.997 11 24.997 8.61c0 0 13.6 18 31.1 8.89l15.5-2.2zm0.5 80.5c-4.5 7-9.4 14.39-18.8 20.59-3.5 2.3-11.8 7.7-23.7 8.61-5.6 0.39-10.3-0.31-13.5-1 8.9 23.59-50.297 72.69-50.297 72.69l-17.5 18.61c-3.8-7.3-3.601-38.8-3.601-38.8s4.601-20.5 5.101-29.11c0.399-8.5 11.102-14.89 11.102-14.89 15.5-48.41 34.098-47.61 34.699-48.61 0.598-1-4.101-1.89-4.101-1.89 29.797-34.5 58.797-26.11 58.797-26.11h38c-3.9 18.61-11 31.91-16.2 39.91"/></g>
  <g id="change2_1"><path fill="#faf5ef" d="m224.42 250.61c23.7 26.19 31.3-14.31 31.3-14.31 21.9 18.7 16.7-3.89 16.7-3.89 36.6-5.61 30.4-25.8 30.4-25.8 23.5 13.19 49.4-37.5 52.6-44.2 3.2-6.71 0-6.8 0-6.8-13.5-1.2-59.1 18.69-59.1 18.69l-32 15.5-12.5 10.4-22.1 13.91s-9.7 10.39-11.8 15c-2.1 4.59 4.3 15.39 4.3 15.39zm-43.1-130.81c15.1-13.89 19.5-26.495 19.5-26.495s9.1-39 11.3-47.102c2.2-8 12.6-14.398 12.6-14.398s30.5-22 42-27.301c11.5-5.3009 22.1-1.6993 22.1-1.6993l-8.4 13.898s-16.2 43.801-18.1 48.5c-1.9 4.703-16.4 11.602-16.4 11.602 1.8 6.199 8.2 13.5-0.9 42.995-9.2 29.5-23.7 24.11-23.7 24.11l-9.7 0.39c1.8 21.31-19.1 28-19.1 28-26.6-25.8-11.2-52.5-11.2-52.5"/></g>
  <g id="change3_1" clip-path="url(#clip1)">
   <path fill="#213b3c" d="m129.32 138.11c0.9-1 2.3-1.7 3.5-2.31 0.5-0.3 1 0.5 0.5 0.81-0.6 0.3-1.2 0.69-1.7 1.09-0.5 0.41-1 0.91-1.6 1.21-0.6 0.29-1.1-0.41-0.7-0.8zm1.6-4c-0.9 0.69-1.8 1.39-2.6 2.09-0.6 0.5-1.3 1.6-2.2 1.3-0.1 0-0.3-0.2-0.3-0.3-0.2-1 1-1.5 1.7-2 0.9-0.7 1.8-1.29 2.8-2 0.5-0.29 1.1 0.5 0.6 0.91zm-0.7-2c-2.5 1.19-4.8 2.69-6.8 4.69-0.5 0.5-1.3-0.3-0.8-0.8 2.1-2.09 4.5-3.7 7.4-4.59 0.3-0.11 0.6 0.5 0.2 0.7zm-3.2-1.41c-1.6 1.3-3.2 2.6-4.9 3.91-1.3 1-2.7 2.39-4.3 3-0.4 0.09-0.8-0.41-0.5-0.7 1-1.3 2.5-2.21 3.8-3.11 1.7-1.3 3.4-2.6 5.1-3.89 0.6-0.41 1.4 0.29 0.8 0.79zm-1.4-2c-5.5 2.1-8.8 6.6-13.4 9.91-0.5 0.39-1.1-0.31-0.8-0.81 3.1-4.69 8.6-8.39 14.1-9.69 0.3-0.2 0.4 0.39 0.1 0.59zm-16.4 116c1-2.29 3.3-3.9 5.2-5.4 2.8-2.1 5.7-4 8.3-6.3 0.5-0.39 1.1 0.2 0.7 0.7-2 2.1-4.3 3.8-6.6 5.5-2.5 1.8-4.5 4.3-6.9 6-0.3 0.3-0.9-0.2-0.7-0.5zm-9.1 11.41c9.6-9.31 19.7-18 30.7-25.61 0.4-0.3 0.8 0.41 0.4 0.7-10.5 8.1-20.7 16.5-30.1 25.91-0.6 0.69-1.698-0.31-1-1zm14.2-7.2c3-4.3 7.8-7.8 12.1-10.61 0.6-0.39 1.1 0.5 0.5 0.9-4.4 3.1-7.7 6.91-11.6 10.6-0.4 0.5-1.4-0.19-1-0.89zm3 1.39c4.7-3.8 9.4-7.6 14.2-11.39 0.4-0.3 0.9 0.2 0.5 0.5-4.6 4-9.1 7.89-13.7 11.79-0.7 0.71-1.7-0.29-1-0.9zm1.2 4.81c-0.5 0.39-1.2-0.2-0.7-0.7 5.7-6.3 12.7-11.8 19.1-17.41 0.3-0.2 0.6 0.11 0.4 0.41-6.2 6-12.2 12.5-18.8 17.7zm100.6-127.7c0.2-0.8 1.3-0.41 1.2 0.29-0.4 2.3-1 5.5-2.7 7.21-0.5 0.5-1.3 0-1.2-0.71 0.3-1.09 1-2.09 1.5-3.2 0.4-1.2 0.9-2.39 1.2-3.59zm-15.3-0.71c-0.4 1.3-0.8 2.6-1.2 4-0.3 1.1-0.5 2.3-1.3 3.21-0.4 0.5-1.2 0-1.2-0.5 0-1.21 0.6-2.3 0.9-3.41 0.4-1.2 0.9-2.39 1.3-3.7 0.4-0.89 1.7-0.5 1.5 0.4zm6.6-3.4c-2.5 5.11-4.3 10.4-6.4 15.61-0.5 1.2-2.2 0.79-2-0.61 1-5.6 3.9-11.1 7.2-15.69 0.5-0.81 1.6-0.11 1.2 0.69zm7.1-5.69c-1 4.09-2.7 7.89-5.6 11.09-0.7 0.8-2.1-0.29-1.5-1.2 2.4-3.3 4.6-6.59 6.2-10.3 0.2-0.5 1-0.09 0.9 0.41zm8.4-4.61c-1.1 3.61-2.6 7.8-5.2 10.61-0.7 0.8-1.8-0.2-1.4-1.11 1.7-3.39 3.9-6.3 5.2-10 0.2-0.8 1.7-0.5 1.4 0.5zm8.1-9c-1.8 6.41-4.6 12.7-8.5 18.2-0.7 1-2.2 0.1-1.6-0.9 3.5-5.69 6.5-11.39 9-17.6 0.3-0.59 1.3-0.4 1.1 0.3zm5.8-7.695c-0.9 8.605-3.8 16.895-8.6 24.105-0.7 1-2.3 0.09-1.7-1 4.5-7.3 7.6-14.8 9.3-23.207 0.1-0.598 1.1-0.5 1 0.102zm3.2-5.899c1 9.894-1.6 19.704-7.1 27.894-0.6 0.81-1.9 0.11-1.4-0.8 5.3-8.39 7.6-17.2 7.4-27.094 0-0.703 1-0.703 1.1 0zm2.4 5.399c0.4-4 0.2-7.899-0.3-11.899 0-0.402 0.6-0.5 0.7-0.101 1.9 7 2.5 17.495-1.8 23.805-0.3 0.39-1.1 0.3-1-0.31 0.4-3.89 2-7.597 2.4-11.495zm-25.8-54c-0.3-1 0.8-2 1.4-2.7 0.4-0.402 0.7-0.8 1.1-1.199 0.4-0.402 0.9-0.601 1.4-1 0.4-0.301 1 0.297 0.7 0.699-0.3 0.399-0.5 0.899-0.8 1.301-0.3 0.399-0.6 0.797-1 1.297-0.5 0.703-0.9 2-1.9 2.102-0.4 0-0.8-0.102-0.9-0.5zm-2.3 8.898c1.1-5.398 5.8-10.598 10.3-13.398 0.7-0.399 1.6 0.601 0.9 1.199-2.1 1.801-4.2 3.801-5.8 6.101-1.6 2.2-2.5 4.598-3.8 6.899-0.4 0.902-1.7 0.199-1.6-0.801zm0 7.703c2-6.402 6.3-11.902 10.9-16.5 0.5-0.5 1.1 0.199 0.7 0.699-4.4 5-7.2 10.598-10.2 16.399-0.3 0.699-1.6 0.199-1.4-0.598zm-0.6 12.797c4.5-14.797 12.3-27.699 23.3-38.5 0.6-0.598 1.6 0.301 1 1-10.4 10.801-18.2 23.703-22.9 37.902-0.3 0.899-1.6 0.5-1.4-0.402zm46-44.199c-0.9 1-1.7 2.301-2.3 3.5s-0.8 2.5-1.4 3.699c-0.4 0.801-1.7 0.402-1.7-0.398 0.2-2.899 2.6-5.5 4.6-7.399 0.5-0.5 1.2 0.098 0.8 0.598zm5.4-4.699c-4.1 6-7 12.699-8.1 19.8-0.2 1.098-1.8 0.598-1.7-0.5 1.1-7.5 4.1-14.199 9.3-19.699 0.3-0.203 0.7 0.098 0.5 0.399zm2.1 0.898c-2 3.703-3.6 7.402-5 11.301-1.1 3.101-1.6 6.402-3 9.301-0.3 0.5-1.1 0.3-1.1-0.301 0.1-7.098 4.5-14.899 8.1-20.899 0.4-0.601 1.4 0 1 0.598zm-1.7 6.602c2.6-6.301 6.2-12 10.8-17 0.4-0.5 1.1 0.199 0.7 0.699-5.2 6.801-9.1 14-11.4 22.301-1.7 6.101-3.2 11.8-6.3 17.398-0.7 1.203-2.5 0.102-1.9-1.098 3.8-7.199 5-14.902 8.1-22.3zm-26.1 168c-3.4 3.5-7.8 7.4-12.4 9-0.8 0.31-1.1-0.8-0.5-1.19 1.9-1.41 4.1-2.41 6.1-3.7 2.1-1.5 4.2-3.11 6.2-4.8 0.4-0.5 1 0.19 0.6 0.69zm24.6-20.69c-4.3 6.89-9 14.19-14.7 20-0.5 0.5-1.4-0.2-1-0.81 4.5-6.8 10-13.1 14.7-19.8 0.5-0.5 1.4 0 1 0.61zm-6.4 12.89c4.7-7.8 10.1-14.89 13.8-23.2 0.1-0.3 0.7-0.1 0.6 0.2-2.9 8.61-7.7 16.61-13.5 23.7-0.4 0.6-1.2-0.2-0.9-0.7zm-10.9 32.41c-0.5 0.89-1 1.79-1.6 2.7-0.4 0.69-0.9 1.59-1.7 1.8-0.3 0.09-0.6-0.21-0.6-0.5-0.1-0.8 0.6-1.61 1.1-2.3 0.6-0.81 1.1-1.61 1.7-2.41 0.5-0.59 1.5-0.09 1.1 0.71zm27.4-16.21c-1.5 2.3-2.9 4.6-4.5 6.8-0.6 0.91-2 0-1.4-0.8 1.7-2.2 3.4-4.4 5.2-6.5 0.3-0.5 1 0 0.7 0.5zm-28.1 19.6c3.3-4.1 6.6-8.39 9.7-12.69 0.4-0.61 1.5-0.11 1.1 0.59-2.9 4.71-6 9.1-9.3 13.5-0.8 1-2.2-0.4-1.5-1.4zm2.3 5.61c1.3-5.61 5.5-10.5 8.8-15.11 3.7-5.1 7.7-10 12-14.69 0.4-0.41 1 0.19 0.6 0.59-3.9 4.8-7.6 9.8-11.2 14.91-3.2 4.5-7.2 9.3-8.5 14.8-0.3 1.09-2 0.59-1.7-0.5zm34.8-39.41c-10.5 11.41-18.9 24-26.1 37.7-0.5 0.91-1.8 0.1-1.3-0.79 6.7-14 16-26.5 27-37.41 0.2-0.39 0.7 0.11 0.4 0.5zm44-12.39c1.5-3 3.9-5.7 5.8-8.61 1.8-2.89 3.6-5.89 5.2-9 0.2-0.5 0.9-0.09 0.7 0.41-2.6 5.89-6.1 13.29-11.1 17.5-0.4 0.39-0.8 0.09-0.6-0.3zm12.1-11.41c1.3-2.29 3.1-4.4 4.7-6.5 0.4-0.5 1.3 0 0.9 0.6-1.5 2.2-2.9 4.7-4.6 6.7-0.5 0.61-1.3-0.2-1-0.8zm-24.6 24.6c-2.9 4.4-6.6 8.81-11 11.81-0.7 0.5-1.5-0.61-0.9-1.11 4-3.5 7.7-6.89 10.9-11.2 0.5-0.6 1.4-0.1 1 0.5zm-3.5 7.81c1.5-2.61 3.9-4.31 6-6.41 2.9-2.7 5.3-5.79 7.4-9.09 0.4-0.61 1.2-0.11 0.9 0.5-1.7 2.89-3.5 5.59-5.7 8.09-2.4 2.6-5.4 4.6-7.3 7.6-0.6 0.9-1.8 0.2-1.3-0.69zm7.7-3.2c5.9-7.61 11.8-15.11 16.9-23.21 0.2-0.29 0.7 0 0.5 0.3-4.6 8.41-9.8 16.7-16.4 23.7-0.4 0.6-1.5-0.2-1-0.79zm12.1-10.8c6.4-8.2 11.6-16.91 17.2-25.61 0.3-0.39 0.8-0.09 0.6 0.41-4.3 9.39-10.5 18.09-16.9 26.2-0.5 0.8-1.5-0.2-0.9-1zm-211.3-62.31c-0.5 0.2-1 0.4-1.5 0.7-0.4 0.2-0.7 0.61-1.1 0.61-0.2 0-0.4-0.2-0.4-0.41 0.1-1.09 1.9-1.5 2.8-1.59 0.5-0.11 0.7 0.59 0.2 0.69zm-0.9-1.5c-1.8 0.9-3.7 2.11-5.6 2.61-0.5 0.09-0.7-0.5-0.3-0.8 1.6-1.11 3.8-1.7 5.6-2.41 0.4-0.2 0.7 0.5 0.3 0.6zm-2.7-1.19c-2.7 1-5.1 2.5-7.7 3.69-0.6 0.31-1-0.5-0.5-0.8 2.3-1.7 5.3-2.8 8-3.59 0.5-0.21 0.7 0.5 0.2 0.7zm-3.8-0.31c-4 1.5-8.1 3.7-12.3 4.7-0.4 0.11-0.6-0.5-0.3-0.7 3.7-2.1 8.3-3.6 12.4-4.69 0.4-0.11 0.6 0.59 0.2 0.69zm-4.1-0.3c-7.3 1.41-14.097 9.3-21.897 7.7-0.5-0.09-0.301-0.7 0.101-0.7 5.098-0.59 8.801-2.39 13.296-4.8 2.7-1.4 5.3-2.4 8.4-2.7 0.4-0.2 0.4 0.41 0.1 0.5zm-71.995 20.5c1.699-3 6.699-4.5 9.797-5 0.801-0.09 1.203 1.11 0.301 1.3-1.899 0.4-3.7 1.11-5.399 2-1.402 0.7-2.699 2-4.101 2.5-0.399 0.11-0.801-0.39-0.598-0.8zm-1.5 3.7c4.199-2.59 9.098-4.2 13.797-5.4 0.601-0.19 0.801 0.7 0.203 0.9-4.703 1.5-8.801 3.71-13.102 6.1-1 0.61-1.898-0.89-0.898-1.6zm18.098-4c0.601-0.2 1 0.71 0.402 1-4.203 1.91-8.602 3.5-12.703 5.6-4.199 2.11-7.5 5.2-11.5 7.5-0.399 0.2-1-0.3-0.699-0.69 5.199-7.11 16.402-10.7 24.5-13.41zm-8.7 6.71c3.5-2.8 7.899-4.5 12.2-5.61 0.699-0.19 0.902 0.81 0.3 1-4.199 1.4-7.699 3.5-11.5 5.81-0.8 0.39-1.699-0.61-1-1.2zm6.301-0.5c1.301-1 3.098-1.61 4.598-2.21 1.601-0.7 3.203-1.29 4.801-2 0.5-0.2 0.8 0.6 0.3 0.8-1.601 0.8-3.199 1.61-4.898 2.3-1.402 0.7-2.902 1.61-4.402 1.81-0.399 0.09-0.801-0.41-0.399-0.7zm0.598 3c3.801-3.21 8.801-5.21 13.301-7.11 0.402-0.19 0.601 0.5 0.3 0.7-4.5 2.11-8.5 5-12.898 7.2-0.5 0.3-1.102-0.4-0.703-0.79zm1 4.39c4.703-4.89 11.601-8.69 17.902-11 0.301-0.1 0.5 0.4 0.199 0.61-6.3 3.29-11.699 7.2-17.398 11.39-0.5 0.4-1.102-0.5-0.703-1zm63.098-1.89c-4.2 0.29-8.2 1.09-12.4 1.89-0.8 0.11-1.1-1-0.3-1.19 4.2-0.91 8.4-1.2 12.7-1.41 0.5 0 0.4 0.71 0 0.71zm-5.6 2.59c3.6-1.3 7.9-1.39 11.7-1.3 0.8 0 0.8 1.21 0 1.21-3.9 0-7.7 0.79-11.6 1.2-0.6 0.19-0.7-0.91-0.1-1.11zm14.9 1.11c-3.2 0.09-6.2 0.89-9.4 1.3-0.6 0.09-0.6-0.8-0.1-1 2.9-1.11 6.4-1.21 9.5-1 0.5 0.09 0.5 0.7 0 0.7zm-5.8 3.59c3.2-1.9 7.9-2.79 11.6-2.2 0.3 0.11 0.3 0.61 0 0.61-1.9 0.3-3.8 0.39-5.7 0.69-1.9 0.4-3.7 1.11-5.6 1.61-0.5 0.2-0.7-0.5-0.3-0.71zm-4.1 3.3c5.4-1.8 11-2.7 16.6-3.5 0.3 0 0.3 0.41 0.1 0.5-5.6 1-11 2.5-16.4 4-0.7 0.2-1-0.8-0.3-1zm12.4 0.2c3.1-1.2 6.5-2.09 9.8-2.79 0.5-0.11 0.8 0.7 0.2 0.79-3.3 0.71-6.5 1.71-9.7 2.8-0.7 0.2-0.9-0.59-0.3-0.8zm0.8 2.91c4.8-2.31 10.2-3.31 15.5-3.61 0.5 0 0.5 0.7 0 0.7-5.3 0.6-10.1 2-15.1 3.6-0.5 0.2-0.8-0.5-0.4-0.69zm-14.4 51c0.3 0 0.4 0.39 0.1 0.5-0.6 0.19-1.1 0.69-1.6 1-0.5 0.19-0.9 0.59-1.4 0.59-0.3 0-0.6-0.29-0.5-0.59 0.5-1.41 2.3-1.41 3.4-1.5zm-8.3 0.69c3.1-2.3 7.2-3.1 11-3.19 0.3 0 0.4 0.39 0.1 0.5-3.7 0.8-7 2.39-10.5 3.8-0.8 0.29-1.1-0.71-0.6-1.11zm5.3-3.19c-5.2 1.69-10 4.69-14.896 7.19-1 0.5-2-1-0.902-1.6 11.298-6.09 20.598-9.7 33.598-7.29 0.3 0.09 0.2 0.5-0.1 0.5-6-0.21-12-0.71-17.7 1.2zm7.5 53.69c-0.2-0.1-0.2-0.3-0.1-0.6 0.2-0.5 0.7-0.5 1.1-0.59 0.5-0.11 1-0.31 1.5-0.5 0.3-0.11 0.6 0.39 0.3 0.59-0.5 0.41-0.9 0.71-1.4 0.91-0.5 0.3-1 0.5-1.4 0.19zm-2.6 4c1.7-1.5 4.3-1.89 6.2-3.19 2.1-1.41 4.1-3 5.7-4.91 0.3-0.4 0.9 0.1 0.7 0.5-1.2 2.21-2.8 3.91-5 5.1-2 1.2-4.9 3-7.3 3.11-0.4 0.09-0.6-0.41-0.3-0.61zm26.8-25.39c1.9-4.3 5.8-7.3 7.2-12 0.2-0.71 1.3-0.61 1.2 0.2-0.6 4.8-4.1 8.89-6.8 12.8-0.7 1-2.1 0.09-1.6-1zm-0.7 8.5c2.5-4.61 6-8.61 8.6-13.11 2.9-5 4.9-10.39 6.5-15.89 0.2-0.71 1.1-0.41 1 0.29-1.5 10.41-7.7 22-14.6 29.91-0.7 0.69-1.9-0.31-1.5-1.2zm-84.497 7.79c1.402-1.7 4-2.7 6.101-3 0.5-0.09 0.5 0.71 0.098 0.91-1 0.3-1.899 0.69-2.797 1.3-0.801 0.59-1.5 1.29-2.301 2-0.801 0.7-1.801-0.41-1.101-1.21zm0.3 2.3c1.301-0.89 2.7-1.39 4.301-1.7 0.399-0.1 0.5 0.5 0.199 0.61-1.3 0.5-2.699 1.2-3.898 2-0.602 0.39-1.102 0.89-1.602 1.5-0.398 0.39-0.601 0.79-1.101 1.09-0.297 0.2-0.699-0.09-0.598-0.5 0.098-1.3 1.699-2.39 2.699-3zm-17.398 39c-1.102 1-2 2.11-2.602 3.41-0.101 0.2-0.398 0.39-0.601 0.39-0.297 0-0.399-0.1-0.598-0.39-0.199-0.21-0.101-0.5 0-0.71 0.699-1.4 1.699-2.59 3-3.59 0.5-0.61 1.399 0.3 0.801 0.89zm11.898 32c-0.398 1.3-0.8 2.61-1.3 3.91-0.399 1.09-0.801 2.29-1.598 3.09-0.5 0.5-1.402 0-1.203-0.7 0.301-1.1 1.101-2.19 1.601-3.19 0.602-1.11 1.102-2.31 1.7-3.5 0.101-0.61 1-0.2 0.8 0.39zm-1.199 6.3c1.301-2.6 2.801-5.1 3.899-7.8 1.101-2.7 1.8-5.5 2.8-8.2 0.2-0.6 1.301-0.5 1.2 0.2-0.598 5.5-3.2 12.11-6.598 16.61-0.602 0.69-1.703 0.09-1.301-0.81zm26.199-36.8c1.2-2.8 2.602-5.2 4.102-7.8 0.199-0.4 1-0.09 0.797 0.3-1.098 2.61-1.899 5.41-2.899 8-0.398 1.3-2.5 0.7-2-0.5zm1.301 7.3c4.899-8.1 6.301-16.69 8.098-25.8 0.101-0.5 1-0.39 1 0.11-0.399 9.19-1.699 19.19-7.399 26.69-0.8 0.9-2.398 0-1.699-1zm276.6-157.19c-1.6 14-13.1 26.89-21.5 37.69-7.7 10-20.2 17.2-33.1 14.31 5.3 15.69-17.1 23-29.2 25 0.7 4.39 0 11.8-6.3 11.3-2.2-0.21-4-1.8-5.6-3.21-1.1-0.9-2.1-2-3.4-2.7-0.7-0.39-1.5-0.59-2.3-0.8 0.7 9-7.9 19-15.9 22.21-7.1 2.79-16.6-1.8-16.9-9.91 0-1.09 1.6-1.59 2.1-0.59 3.6 7.2 10.3 10.79 17.4 5.29 5.4-4.2 12.1-11.29 11.4-18.5-0.1-0.7 0.9-1 1.4-0.59 2.4-0.91 5 1.3 6.7 2.8 1.4 1.2 3 3.09 4.9 3.5 4.5 0.89 4.7-5.71 4.9-8.61v-0.1c-1.3-0.29-1.6-2.29-0.1-2.5 10.2-1.5 33.9-8.29 29.3-23-0.2-0.09-0.5-0.09-0.7-0.2-0.7-0.2-0.9-1.5 0-1.59 6.7-1.21 13.3 0.2 19.9-2.41 6.7-2.59 11.3-8 15.5-13.7 7.5-10 18.1-21.19 19.9-33.89 0.2-0.91 1.7-0.71 1.6 0.2zm-182.6 52.3c-0.8-0.21-1.6-0.3-2.4-0.5h-0.1c-9-1-18.2 3.89-26.1 7.7-6.9 3.3-13.6 7.19-19.9 11.5-12.9 8.8-24.1 19.69-34.597 31.19-20.899 22.9-38.098 48.2-50.899 76.4-0.902 1.91-3.699 0.3-2.902-1.7 13.5-30 31.601-58.5 54.402-82.3 11.296-11.79 23.596-22.59 37.896-30.7 6.8-3.8 13.9-7.2 21.2-9.89 1.4-0.5 2.9-1.11 4.3-1.5-2.6 0.39-5.2 0.89-7.9 1.19-8.4 1.11-16.6 0.81-25 0.5-16.1-0.5-32.398 11.5-42.496 23.9 6.301-0.09 12.5-1 18.899 0.41 1.497 0.3 1.197 2.8-0.399 2.69-4.199-0.19-8.5-0.8-12.801-0.89-9.8 4.59-17.898 8.09-23.8 18-4 6.7-7.098 13.89-10 21.2 3.199-3.41 7.402-6.11 11.199-8.2 0.601-0.3 1 0.5 0.5 0.79-4.5 2.91-10.399 7.3-13.098 12.41 2.399-1.41 5-2.61 7.5-3.81 1.098-0.5 2 0.9 0.899 1.61-3.598 2.39-7.5 4.59-11 7.2-0.301 0.5-0.7 0.8-1.2 0.89-2.898 2.3-5.398 5-7.199 8.3-3.801 7-1.402 14.9-3.402 22.31 1.801-3.31 4-6.31 6.5-8.91 0.601-0.59 1.5 0.3 1 1-6.199 7.21-8.199 15.5-11.098 24.1-0.301 2.7-0.301 5.4 0 8.31 0.699 7.3 2.5 14.39 3.5 21.59 6.399-6.79 12.801-13.59 19.301-20.2 0-0.09 0-0.09 0.098-0.2 5.3-7.5 10-15 13.101-23.8 0.301-0.8 1.399-0.5 1.199 0.3-1.3 5-3.199 10-5.601 14.61 4.203-4.3 8.5-8.71 12.703-13 4-4.21 8.398-8.5 12.199-13 3.098-8.41 4.399-16.5 3.098-25.61-0.098-0.8 1-1.19 1.203-0.3 1.598 6.7 1.598 14-0.203 20.7 0.801-1.09 1.601-2.29 2.301-3.5 0.3-4.09 2-7.79 2.101-12 0.098-4.59-1.402-8.7-2.601-13.09-0.301-1 1.101-1.31 1.5-0.41 2.402 6.5 3.297 12.5 2.402 18.8 2.795-7 3.195-14.7-0.602-23.3-0.601-1.2 1-2.79 1.997-1.59 1.8 2.19 3.1 4.39 4 6.69 6.6 1.11 13.3 0.81 19.7-0.89 0.1-0.11 0.1-0.21 0.2-0.21 5.7-3.29 10.2-7.59 12.2-14 0.3-0.9 1.7-0.5 1.4 0.41-0.9 4.19-3 8.09-6.1 11.09 6.2-2.79 11.8-6.9 16.4-12.2 2.6-3 5.2-6.3 7.6-9.7 4.4-9.6 6.6-19.39 7-30.39 0-0.91 1.4-0.91 1.4 0 0.4 7.59-0.7 15.2-3.1 22.39 5.6-9.1 10.1-19 12.3-28.89 0.2-0.91 1.6-0.5 1.4 0.39-3.5 18.4-14.3 38.31-27.5 51.61-11 11.09-26.7 15.79-42 14 2.4 13.09-7.397 27.5-16.295 36.59-17.5 17.91-35.703 34.91-52.902 53.2-0.2 0.3-0.399 0.5-0.7 0.71-0.5 0.39-1 0.39-1.5 0.2-0.8-0.2-1.601-0.81-1.601-1.81-0.797-10.1-3.699-20.1-3.797-30.19-0.102-9.5 5-17.5 5.398-26.81 0.301-7.89 0.102-13.8 5.5-20.3 1.602-2 3.399-3.7 5.399-5.2 3.703-11.69 8.902-24.3 16.101-34.3 4.2-5.8 10-10.2 16.5-13-0.101 0-0.199 0-0.3 0.11-1.301 0.3-2.301-1.11-1.7-2.31 3.899-7.69 10.801-13 17.899-17.69 6.998-4.7 14.098-9.7 22.698-10.41 11.2-1 22.5 0.8 33.8-0.5 8.4-0.9 17-2.4 25 1.1 0.9 0.4 0.5 1.2-0.1 1.11zm-162.2-48.3c-0.602 0.39-1.102 0.89-1.703 1.39 0.601-0.5 1.101-1 1.703-1.39zm275.8-156.7c-0.2 0.1993-0.4 0.3985-0.6 0.5977 0-0.1992-0.1-0.3984-0.2-0.5977 0.3-0.1015 0.5-0.1015 0.8 0zm-82 207.59v0 0.11-0.11zm2.2-19.39c3.1-5.7 8.7-9.7 13.8-13.5 9.2-6.81 18.8-13 28.7-18.61 8.7-4.89 18.5-8.39 26-15 8.7-7.59 14.3-17.5 25.7-21.2-6.6 9-12.5 18.7-17.9 28.81l-3.6 3c1.3-2.41 2.4-5.11 3.7-7.5 3.4-6.31 7.6-11.91 11.6-17.81 0.3-0.5-0.4-1-0.8-0.6-4 4.1-7.3 8.91-10.2 13.8-3.2 5.41-5 12.5-9.7 16.8-0.1 0.11-0.2 0.11-0.2 0.2 3.7-5.5 6.4-11.59 9.1-17.59 0.2-0.41-0.3-0.71-0.6-0.3-4.6 7.8-8.1 16.09-14.4 22.69-0.2 0.2-0.2 0.5-0.2 0.7-8.9 8-17.7 16.11-27.4 22.91-6.3 4.29-13.2 7.79-20.1 11 0.1-0.21 0.2-0.3 0.4-0.5 1-1.3 1.9-2.5 2.8-3.8 0.4-0.5-0.5-1.2-0.9-0.7-1 1.09-1.9 2.29-2.9 3.39-0.7 0.81-1.6 1.7-2.1 2.7-0.6 0.2-1.2 0.5-1.8 0.7 1.4-2.29 2.8-4.59 4.4-6.9 0.4-0.5-0.5-1.19-0.9-0.69-2.1 2.69-4.2 5.5-5.9 8.5-0.7 0.3-1.4 0.59-2.1 0.89 2.2-4.3 4.5-8.5 7.3-12.5 0.3-0.39-0.4-0.89-0.7-0.5-3.6 4.41-6.9 9.2-9.2 14.5-0.2 0.2-0.4 0.3-0.7 0.5 1.6-3.89 3.4-7.59 5.5-11.3 0.2-0.29-0.3-0.59-0.5-0.29-2.8 3.79-5 7.79-6.8 12.09 1.7-10.39 8.6-17.59 16.8-24.5 0.4-0.39-0.1-1.09-0.6-0.8-10 6.1-18.1 16.6-18.3 28.6-0.2-5.8-0.3-11.69 2.7-17.19zm123.5-54.91c-0.4 0.8-0.8 1.6-1.2 2.41v-0.11c0.4-0.89 0.8-1.59 1.2-2.3zm8-28.4c-0.1 0-0.1-0.1-0.2-0.1 0.2 0.1 0.5 0.1 0.7 0.21-0.1 0-0.3-0.11-0.5-0.11zm6.6 8c-0.2 0.11-0.4 0.31-0.6 0.4 0.1-0.09 0.1-0.2 0.1-0.29 0.2 0 0.4-0.11 0.5-0.11zm-32.5 56.4c0.5-0.2 0.2-1.2-0.4-1-25.9 9.5-49.9 25.5-69.8 45.6 1-2.19 2-4.39 3-6.6 0.2-0.5-0.4-0.9-0.7-0.4-2.3 3.9-4.8 7.81-7 11.9-2 2.1-3.9 4.3-5.7 6.5 0.1-0.2 0.2-0.4 0.2-0.5 1.9-4.09 4-8.2 6.1-12.2 0.3-0.5-0.5-1-0.8-0.5-3.7 5.8-7.9 12.5-10.4 19.3-1.4 1.7-2.7 3.5-4 5.2 0.9-2.3 1.8-4.59 2.8-6.8 1.2-2.5 2.7-4.79 3.5-7.4 0.2-0.6-0.6-1-1-0.6-3.6 3.8-5.8 10-7.2 15.3-2.8-4.89-4.3-9.2-1.4-15.39 2.8-6 8.5-10 14.1-13.2 9.4-5.5 18.6-9.61 25.2-18.5 0.6-0.8-0.7-1.71-1.3-1-5.9 6-12.5 10.29-19.8 14.29-0.5 0.1-1 0.1-1.4 0.21 6.6-6 12.4-12.61 17.4-20 0.5-0.71-0.6-1.3-1.1-0.61-5.5 7.4-11.8 14.31-18.7 20.5-0.2 0.11-0.2 0.31-0.2 0.4-2.7 0.21-5.4 0.3-8.4 0.1-4.6-0.39-9.2-1-13.6 0.7-1 0.41-0.6 1.8 0.4 1.61 5.8-0.81 11 0.39 16.8 0.8 0.7 0.09 1.4 0.09 2.1 0.09-4.4 2.61-8.4 5.61-11.6 9.7-4.8 6.1-7.8 19.71 0.2 24.5-9.7 13.8-17.5 28.8-23.1 44.41-0.1-0.41-0.1-0.7-0.2-1.11 0.9-6.2-0.1-12.8-0.1-19.09 0-8 0.3-15.91 0.9-23.91 1-13 2.9-27 13-36.3 0.2-0.2 0.3-0.5 0.2-0.7 5.1-3.5 11.1-5.39 16.7-8.2 6.4-3.19 12.7-6.8 18.3-11.19 12.6-10 24.4-21.41 36-32.61-5 9.5-9.5 19.2-13.8 28.8-0.7 0.9-1.5 1.9-2.1 2.9-1.2 0.6-2.5 1.3-3.7 1.91-1.1 0.59-0.3 2.39 0.8 2 1-0.41 1.9-0.81 2.9-1.11h0.1c13.5-5.3 26.3-12.89 39.4-18.89 7.8-3.61 15.8-6.91 23.9-9.61 7.9-2.59 16.1-3.7 24-6.09 0.6-0.21 0.5-1.11-0.2-1.21-14.9-0.2-31.1 7.21-44.5 13-12.3 5.41-24.9 11-37 17.1 1.7-1.8 3.5-3.6 5.4-5.19 4.3-3.61 9.5-5.31 14.1-8.41 4.8-3.2 7.3-7.09 13.3-8.29 4.3-0.91 8.3-1.91 12.2-4 8.1-4.5 12.9-11.71 16.8-19.91 4.7-9.89 8.7-20.89 19.7-24.7h0.1c2.2 1.11 3.9-1.89 1.9-3.19-8.1-5.41-17.7-9.41-27.6-7.31-10 2.2-17.9 9.31-24 17.31-0.2 0.3-0.4 0.59-0.6 0.8-10.1 1.59-16.8 9.5-23.7 16.39-10.1 10.11-23.8 14.81-36 21.9-10.9 6.3-22.2 13.21-31.6 21.71-9.6 8.59-11.1 18.7-9.9 31.09 0.1 0.8 0.5 1.3 1.1 1.61-4.5 6.5-6.5 14.59-7.6 22.69-1.1 8.31-1.7 16.7-2 25.11v0.7c-4.9-30-5.5-59.91-1.3-90.11 0.1 0 0.1 0 0.2-0.09 3.6-2.8 6.9-4 11.1-5.8 2.6-1.11 4.8-2.5 6.4-4.91 3.3-4.9 3.2-10.9 2.1-16.5 0.1 0 0.2 0 0.3 0.1 7.5 0.7 13.8 0.9 19.8-4.39 6.2-5.41 9.4-13.61 12.5-20.91 5.7-13.39 10.8-30.395 2.6-43.695 12.7-2.301 18.3-14.602 21.6-26.2 2.3-8.3 4.7-16.5 8-24.5 3.3-8.101 8-15 12.7-22.199 2 0.0979 2.4-3.2029 0.4-3.6013-20.8-4-36.7 7.6015-52.5 19.199-7.7 5.699-17.7 11.101-23.7 18.801-5.9 7.5-6.5 17.8-8.5 26.8-2.5 11.2-4.8 24.399-10.2 34.695-4.7 8.81-13.5 14.31-17.6 23.7-7.1 16.5-0.1 36 12.1 48 0.5 0.5 1.3-0.2 0.9-0.7s-0.7-1-1.1-1.5v-0.3c-0.5-4.3 0.9-9 1.6-13.3 0.6-3.59 1.2-7.2 1.6-10.79 0.1-0.61-0.9-0.71-1-0.11-1.1 4.7-1.9 9.4-2.8 14.11-0.5 2.59-1.2 5.2-1.2 7.79-0.5-0.7-0.9-1.4-1.4-2.2 0.1-9.8 0.9-18.89 3.2-28.59 0.1-0.5-0.6-0.71-0.8-0.21-2.8 8.21-4.3 17.71-3.7 26.5-0.6-1.09-1.2-2.09-1.8-3.2v-0.3c-0.9-4.2-0.5-8-0.2-12.09 0-0.5-0.7-0.5-0.8-0.11-1.1 2.7-1.2 5.7-0.8 8.61-0.5-1.2-1-2.5-1.5-3.81 0.1-0.1 0.1-0.19 0.1-0.3-0.3-2.7-0.6-5.39-0.6-8.09 0-2.71 0.6-5.3 0.5-8 0-0.5-0.6-0.61-0.8-0.21-1.2 1.71-1.6 3.8-1.6 6.1-0.9-8.8 1.1-17.6 8-25.5 5.3-6.1 10.8-10.89 14.1-18.597 3.4-8.199 5.4-17.199 7.7-25.797 2.2-8.402 3.1-17.703 6.7-25.601 4.3-9.5 15.4-15 23.5-20.899 7.2-5.301 14.3-11.101 22.3-15.402 7.6-4.0978 15.4-5.5978 23.6-5.5001-12.6 7.6991-25.2 15.5-36.1 25.601-12.4 11.5-20.3 25.5-27.2 40.7-13.7 30.395-26 62.895-28.3 96.495 0 0.7 0.9 0.61 1 0 3.6-33.69 15.7-64.5 29.9-94.894 6.8-14.5 14.3-28 26.3-39 10.3-10.301 22.8-18 35.2-25.601-6.9 8.101-11.3 18.8-14.6 28.5-4.5 13.101-7 36.101-24.6 37.5-2.5 0.199-2.5 4-0.1 3.898 6.3 14.203 2.9 28.097-3.1 41.907-2.3 5.39-4.6 11.09-8.1 15.89-1.6 2.2-3.3 3.8-5.1 5 6.3-8 11-17.39 13.3-27.3 0.1-0.59-0.7-0.79-0.9-0.29-4 11-9.2 20.39-16.3 29.5-0.7 0.2-1.4 0.5-2.2 0.59 3.3-3.8 5.9-8.2 8-12.8 0.2-0.4-0.4-0.79-0.6-0.4-2.8 4.81-6.2 9.2-9.7 13.5 3.8-5.1 6.6-10.89 8.2-17.19 0.1-0.61-0.6-0.81-0.8-0.2-2.4 6.39-5.7 12.2-9.8 17.5h-1.3c3.2-4.41 5.2-9.8 6.6-15.11 0.1-0.5-0.6-0.69-0.8-0.19-2 5.5-4.9 10.19-7.8 15.19-0.6 0-1.1-0.1-1.7-0.1 0.7-1.59 1.3-3.29 2.1-4.9 0.2-0.5-0.4-0.8-0.7-0.39-1.2 1.79-2.6 3.89-3.4 6-0.4 0-0.9 0.29-0.9 0.79-0.3 8.91-0.1 16.21-9.3 20.41-2.9 1.3-5.7 2.69-8 4.8 0-0.8-1.2-1.21-1.4-0.3-0.2 0.8-0.3 1.5-0.5 2.3 0 0.09-0.1 0.09-0.1 0.2-0.3 0.39-0.2 0.69-0.1 1-2.7 13.5-4.3 27.19-4.7 41.09-3.9-17-11.2-35.29-27.5-41.5-0.7-0.29-1.1 0.8-0.5 1.21 0.4 0.2 0.7 0.39 1 0.59-3.8 0.11-7.6 0.61-11.3 1.41-5.2 1.09-11.4 4.29-16.8 2.79-2.4-0.7-4.4-2.09-6.2-3.7 6.9-2.89 12.9-7 20.5-8.39 0.3-0.11 0.2-0.61-0.1-0.5-7.3 0.8-15.1 4-21 8.3l-0.1 0.09c-3.3-3-6.2-6.59-10.6-8-0.9-0.3-1.5 0.61-1.3 1.3-7.8-0.69-14.195-3-20.695-7.8-4-2.89-7.5-4.8-12.5-5-13.801-0.7-25.801 7.5-39.902 3.91-4.598-1.21-9.399-2.91-14.098-3.71 9.5-11.09 23.398-24.79 38.199-26.79 7.098-1 14.199 0.39 21.301-0.5 6.398-0.8 11.398-3.71 17.095-6.41 9.2-4.5 16.9-4.59 24.1 3.11 4.6 4.89 8.5 10.5 13.4 15.19 5.9 5.7 11.7 9.4 13.6 17.9 0.6 2.8 1.1 5.5 2 8.1-11.8-8.8-25.2-14.69-39.6-18.39-17.896-4.61-37.997-7.41-56.497-6.5-0.598 0-0.899 1.09-0.2 1.2 17.602 2.59 35.2 2.59 52.597 7 16.9 4.39 33.2 11.69 46.5 23.19 0.5 0.4 1 0.5 1.5 0.4 1.2 0.1 2.5-1.2 1.7-2.4-4.5-6.19-3.5-14-7.1-20.5-3.5-6.39-10.5-10.39-15.3-15.6-9.1-9.9-16.5-23.29-32-18.29-8.498 2.7-15.096 8.39-24.397 9-8 0.5-16.101-1.21-23.898 1.29-14 4.41-26.203 17.5-34.801 28.8-4.301-0.5-8.5 0-12.601 2.5-9.0003 5.61-11.5 16.91-11.2 26.8 0.000438 0.61 0.30122 1 0.69966 1.2 0.10156 0.7 0.69924 1.41 1.4023 1.11 12.398-4.7 14.098-18.41 22-27.41 0.098-0.09 0.098-0.29 0.098-0.5 0.199-0.09 0.3-0.09 0.5-0.2 1 0.11 2.101 0.3 3.3 0.61 8.7 2 16.2 5.5 25.301 4.19 11.399-1.6 24.301-8.89 35.199-2.3 8.5 5.11 15.597 9.61 25.897 8.5 5.3 4 10.7 10.61 17.4 11.8 3.3 0.61 6.4-0.39 9.5-1.19 6.7-1.91 13.1-3.61 20.1-3.81 0.2 0 0.3-0.1 0.4-0.1 7.8 5.21 13.4 12.5 16.8 21.5 3.7 9.71 4.8 20.21 8 29.91 0.2 6.3 0.6 12.5 1.2 18.8-3.4-12-7-23.91-10.8-35.5-0.3-1-1.9-0.61-1.6 0.39 8 28.2 15.8 57.2 20.1 86.4-0.1 0.41-0.3 0.8-0.4 1.21-0.3 1 0.2 1.7 0.9 2.09 2.3 16.91 3.5 33.91 2.7 51-2.1 48.8-4.5 97.61-6.6 146.41-0.1 2.7 4.2 2.7 4.3 0 2.2-49.61 4.8-99.3 6.5-148.91 0.6-17.09-0.8-34.2-3.5-51.3 20.1-56.5 60.3-99.9 114.8-124.5"/>
  </g>
 </g>
</svg>